<svg id="svg10" width="23" height="23" version="1.1" viewBox="0 0 23 23" xmlns="http://www.w3.org/2000/svg">
 <path id="path4" d="m11.5 0c-6.351 0-11.5 5.149-11.5 11.5 0 6.352 5.149 11.5 11.5 11.5 6.352 0 11.5-5.148 11.5-11.5 0-6.351-5.148-11.5-11.5-11.5zm0 1.9609375c5.269 0 9.539062 4.2700625 9.539062 9.5390625 0 0.810396-0.110551 1.59242-0.300781 2.34375l-4.537109-5.0429688-5.800781 6.5996098 2.798828-5.5996098-1.398438-2.5-8.2460935 9.4765628c-1.0059878-1.511683-1.59375-3.325671-1.59375-5.277344 0-5.269 4.2700625-9.5390625 9.5390625-9.5390625z" style="fill:#dc682e"/>
</svg>
